<?xml version="1.0" encoding="UTF-8" standalone="no"?>
<!-- Created with Inkscape (http://www.inkscape.org/) -->

<svg
   xmlns:dc="http://purl.org/dc/elements/1.1/"
   xmlns:cc="http://creativecommons.org/ns#"
   xmlns:rdf="http://www.w3.org/1999/02/22-rdf-syntax-ns#"
   xmlns:svg="http://www.w3.org/2000/svg"
   xmlns="http://www.w3.org/2000/svg"
   xmlns:sodipodi="http://sodipodi.sourceforge.net/DTD/sodipodi-0.dtd"
   xmlns:inkscape="http://www.inkscape.org/namespaces/inkscape"
   width="65.000168mm"
   height="74.999557mm"
   viewBox="0 0 65.000168 74.999557"
   id="svg2"
   version="1.1"
   inkscape:version="0.91+devel+osxmenu r12922"
   sodipodi:docname="audio.svg">
  <defs
     id="defs4" />
  <sodipodi:namedview
     id="base"
     pagecolor="#ffffff"
     bordercolor="#666666"
     borderopacity="1.0"
     inkscape:pageopacity="0.0"
     inkscape:pageshadow="2"
     inkscape:zoom="1.979899"
     inkscape:cx="-195.29215"
     inkscape:cy="-46.606757"
     inkscape:document-units="mm"
     inkscape:current-layer="layer1"
     showgrid="false"
     inkscape:window-width="1779"
     inkscape:window-height="914"
     inkscape:window-x="1440"
     inkscape:window-y="23"
     inkscape:window-maximized="0"
     fit-margin-top="0"
     fit-margin-left="0"
     fit-margin-right="0"
     fit-margin-bottom="0"
     inkscape:object-nodes="false"
     inkscape:snap-nodes="false"
     inkscape:snap-others="false" />
  <metadata
     id="metadata7">
    <rdf:RDF>
      <cc:Work
         rdf:about="">
        <dc:format>image/svg+xml</dc:format>
        <dc:type
           rdf:resource="http://purl.org/dc/dcmitype/StillImage" />
        <dc:title />
      </cc:Work>
    </rdf:RDF>
  </metadata>
  <g
     inkscape:label="Layer 1"
     inkscape:groupmode="layer"
     id="layer1"
     transform="translate(-19.999813,-22.000207)">
    <path
       style="opacity:1;fill:#ee4d2e;fill-opacity:1;fill-rule:nonzero;stroke:none;stroke-width:2.51501012;stroke-linejoin:round;stroke-miterlimit:4;stroke-dasharray:none;stroke-opacity:1"
       d="M -76.699219 241.33398 A 20.324352 20.324352 0 0 0 -97.023438 261.6582 A 20.324352 20.324352 0 0 0 -76.699219 281.98242 A 20.324352 20.324352 0 0 0 -56.375 261.6582 A 20.324352 20.324352 0 0 0 -76.699219 241.33398 z M -75.228516 249.85742 L -75.228516 273.22266 L -83.623047 265.68555 L -85.046875 265.68555 L -85.046875 257.52734 L -83.623047 257.52734 L -75.228516 249.85742 z M -67.572266 252.30469 A 1.0001001 1.0001001 0 0 1 -66.998047 252.45898 C -64.542086 253.93685 -63.272286 257.46926 -63.195312 261.42188 C -63.11834 265.37449 -64.263144 269.0375 -66.591797 270.78906 A 1.0001001 1.0001001 0 1 1 -67.787109 269.19531 C -66.372732 268.13145 -65.127134 264.96599 -65.195312 261.46484 C -65.263494 257.96369 -66.64432 255.00645 -68.03125 254.17188 A 1.0001001 1.0001001 0 0 1 -67.572266 252.30469 z M -71.455078 255.24219 A 1.0001001 1.0001001 0 0 1 -70.886719 255.39062 C -69.04814 256.49698 -68.202089 258.99097 -68.148438 261.74609 C -68.094784 264.50122 -68.850811 267.06794 -70.578125 268.36719 A 1.0017226 1.0017226 0 1 1 -71.78125 266.76562 C -70.968211 266.15408 -70.103575 264.08687 -70.148438 261.7832 C -70.193297 259.47954 -71.152327 257.56659 -71.921875 257.10352 A 1.0001001 1.0001001 0 0 1 -71.455078 255.24219 z M -90.623047 256.82422 L -87.830078 256.82422 C -87.58064 256.82422 -87.378906 257.024 -87.378906 257.27344 L -87.378906 265.95703 C -87.378906 266.20647 -87.58064 266.4082 -87.830078 266.4082 L -90.623047 266.4082 C -90.872485 266.4082 -91.074219 266.20647 -91.074219 265.95703 L -91.074219 257.27344 C -91.074219 257.024 -90.872485 256.82422 -90.623047 256.82422 z "
       transform="matrix(0.26458333,0,0,0.26458333,19.999813,22.000207)"
       id="circle5456"
       inkscape:export-xdpi="118.08572"
       inkscape:export-ydpi="118.08572" />
    <rect
       style="opacity:1;fill:#888888;fill-opacity:1;fill-rule:nonzero;stroke:none;stroke-width:0.06056076;stroke-miterlimit:4;stroke-dasharray:none;stroke-opacity:1"
       id="rect5434"
       width="0.97731382"
       height="2.5357332"
       x="8.9434299"
       y="89.951591"
       ry="0.11912841"
       inkscape:export-xdpi="111.20452"
       inkscape:export-ydpi="111.20452" />
    <path
       style="opacity:1;fill:#888888;fill-opacity:1;fill-rule:nonzero;stroke:#888888;stroke-width:0.37821746;stroke-linejoin:round;stroke-miterlimit:4;stroke-dasharray:none;stroke-opacity:1"
       d="m 13.135666,88.108415 -2.221004,2.029475 -0.376471,0 0,2.158416 0.376471,0 2.221004,1.994182 z"
       id="rect5436"
       inkscape:connector-curvature="0"
       sodipodi:nodetypes="ccccccc"
       inkscape:export-xdpi="111.20452"
       inkscape:export-ydpi="111.20452" />
    <circle
       style="opacity:1;fill:none;fill-opacity:1;fill-rule:nonzero;stroke:#888888;stroke-width:0.66542977;stroke-linejoin:round;stroke-miterlimit:4;stroke-dasharray:none;stroke-opacity:1"
       id="path5442"
       cx="12.746779"
       cy="91.230484"
       r="5.3774848"
       inkscape:export-xdpi="111.20452"
       inkscape:export-ydpi="111.20452" />
    <path
       style="opacity:1;fill:none;fill-opacity:1;fill-rule:nonzero;stroke:#888888;stroke-width:0.5291667;stroke-linecap:round;stroke-linejoin:round;stroke-miterlimit:4;stroke-dasharray:none;stroke-opacity:1"
       id="path5444"
       sodipodi:type="arc"
       sodipodi:cx="13.87995"
       sodipodi:cy="91.315903"
       sodipodi:rx="0.86483985"
       sodipodi:ry="1.5958353"
       sodipodi:start="5.0276217"
       sodipodi:end="1.1837266"
       d="m 14.148083,89.798703 a 0.86483985,1.5958353 0 0 1 0.596149,1.459892 0.86483985,1.5958353 0 0 1 -0.537826,1.535082"
       sodipodi:open="true"
       inkscape:export-xdpi="111.20452"
       inkscape:export-ydpi="111.20452" />
    <path
       sodipodi:open="true"
       d="m 15.17691,89.022861 a 1.2742804,2.3513505 0 0 1 0.878383,2.151047 1.2742804,2.3513505 0 0 1 -0.792447,2.261834"
       sodipodi:end="1.1837266"
       sodipodi:start="5.0276217"
       sodipodi:ry="2.3513505"
       sodipodi:rx="1.2742804"
       sodipodi:cy="91.258347"
       sodipodi:cx="14.781835"
       sodipodi:type="arc"
       id="path5448"
       style="opacity:1;fill:none;fill-opacity:1;fill-rule:nonzero;stroke:#888888;stroke-width:0.5291667;stroke-linecap:round;stroke-linejoin:round;stroke-miterlimit:4;stroke-dasharray:none;stroke-opacity:1"
       inkscape:export-xdpi="111.20452"
       inkscape:export-ydpi="111.20452" />
    <rect
       style="opacity:1;fill:#888888;fill-opacity:1;fill-rule:nonzero;stroke:none;stroke-width:0.55484712;stroke-linecap:round;stroke-linejoin:round;stroke-miterlimit:4;stroke-dasharray:none;stroke-opacity:1"
       id="rect5475"
       width="0.80180854"
       height="10.991459"
       x="73.223427"
       y="50.002701"
       ry="0.15825462"
       transform="rotate(45)"
       inkscape:export-xdpi="111.20452"
       inkscape:export-ydpi="111.20452" />
  </g>
</svg>
