<?xml version="1.0" encoding="UTF-8" standalone="no"?>
<!-- Created with Inkscape (http://www.inkscape.org/) -->

<svg
   xmlns:dc="http://purl.org/dc/elements/1.1/"
   xmlns:cc="http://creativecommons.org/ns#"
   xmlns:rdf="http://www.w3.org/1999/02/22-rdf-syntax-ns#"
   xmlns:svg="http://www.w3.org/2000/svg"
   xmlns="http://www.w3.org/2000/svg"
   xmlns:sodipodi="http://sodipodi.sourceforge.net/DTD/sodipodi-0.dtd"
   xmlns:inkscape="http://www.inkscape.org/namespaces/inkscape"
   width="65.000168mm"
   height="74.999557mm"
   viewBox="0 0 65.000168 74.999557"
   id="svg2"
   version="1.1"
   inkscape:version="0.91+devel+osxmenu r12922"
   sodipodi:docname="image.svg">
  <defs
     id="defs4" />
  <sodipodi:namedview
     id="base"
     pagecolor="#ffffff"
     bordercolor="#666666"
     borderopacity="1.0"
     inkscape:pageopacity="0.0"
     inkscape:pageshadow="2"
     inkscape:zoom="0.98994949"
     inkscape:cx="90.333833"
     inkscape:cy="157.11967"
     inkscape:document-units="mm"
     inkscape:current-layer="layer1"
     showgrid="false"
     inkscape:window-width="1779"
     inkscape:window-height="914"
     inkscape:window-x="1440"
     inkscape:window-y="23"
     inkscape:window-maximized="0"
     fit-margin-top="0"
     fit-margin-left="0"
     fit-margin-right="0"
     fit-margin-bottom="0" />
  <metadata
     id="metadata7">
    <rdf:RDF>
      <cc:Work
         rdf:about="">
        <dc:format>image/svg+xml</dc:format>
        <dc:type
           rdf:resource="http://purl.org/dc/dcmitype/StillImage" />
        <dc:title></dc:title>
      </cc:Work>
    </rdf:RDF>
  </metadata>
  <g
     inkscape:label="Layer 1"
     inkscape:groupmode="layer"
     id="layer1"
     transform="translate(-19.999813,-22.000207)">
    <path
       style="opacity:1;fill:#bfbfbf;fill-opacity:1;fill-rule:nonzero;stroke:none;stroke-width:0.03770145;stroke-miterlimit:4;stroke-dasharray:none;stroke-opacity:1"
       d="m 45.194041,49.89452 c -0.335377,0 -0.605431,0.269918 -0.605431,0.605295 l 0,18.63316 c 0,0.335377 0.270054,0.605295 0.605431,0.605295 l 15.9872,0 c 0.335376,0 0.605432,-0.269918 0.605432,-0.605295 l 0,-18.63316 c 0,-0.335377 -0.270056,-0.605295 -0.605432,-0.605295 l -15.9872,0 z m 0.500015,0.661353 14.98717,0 c 0.245943,0 0.443956,0.198013 0.443956,0.443956 l 0,13.664327 c 0,0.245942 -0.198013,0.443956 -0.443956,0.443956 l -14.98717,0 c -0.245943,0 -0.443956,-0.198014 -0.443956,-0.443956 l 0,-13.664327 c 0,-0.245943 0.198013,-0.443956 0.443956,-0.443956 z"
       id="rect4141"
       inkscape:connector-curvature="0"
       inkscape:export-xdpi="64"
       inkscape:export-ydpi="64" />
  </g>
</svg>
