<?xml version="1.0" encoding="UTF-8" standalone="no"?>
<!-- Created with Inkscape (http://www.inkscape.org/) -->

<svg
   xmlns:dc="http://purl.org/dc/elements/1.1/"
   xmlns:cc="http://creativecommons.org/ns#"
   xmlns:rdf="http://www.w3.org/1999/02/22-rdf-syntax-ns#"
   xmlns:svg="http://www.w3.org/2000/svg"
   xmlns="http://www.w3.org/2000/svg"
   xmlns:sodipodi="http://sodipodi.sourceforge.net/DTD/sodipodi-0.dtd"
   xmlns:inkscape="http://www.inkscape.org/namespaces/inkscape"
   width="65.000168mm"
   height="74.999557mm"
   viewBox="0 0 65.000168 74.999557"
   id="svg2"
   version="1.1"
   inkscape:version="0.91+devel+osxmenu r12922"
   sodipodi:docname="settings.svg">
  <defs
     id="defs4" />
  <sodipodi:namedview
     id="base"
     pagecolor="#ffffff"
     bordercolor="#666666"
     borderopacity="1.0"
     inkscape:pageopacity="0.0"
     inkscape:pageshadow="2"
     inkscape:zoom="7.9195959"
     inkscape:cx="30.991658"
     inkscape:cy="40.014761"
     inkscape:document-units="mm"
     inkscape:current-layer="layer1"
     showgrid="false"
     inkscape:window-width="1779"
     inkscape:window-height="914"
     inkscape:window-x="1440"
     inkscape:window-y="23"
     inkscape:window-maximized="0"
     fit-margin-top="0"
     fit-margin-left="0"
     fit-margin-right="0"
     fit-margin-bottom="0" />
  <metadata
     id="metadata7">
    <rdf:RDF>
      <cc:Work
         rdf:about="">
        <dc:format>image/svg+xml</dc:format>
        <dc:type
           rdf:resource="http://purl.org/dc/dcmitype/StillImage" />
        <dc:title></dc:title>
      </cc:Work>
    </rdf:RDF>
  </metadata>
  <g
     inkscape:label="Layer 1"
     inkscape:groupmode="layer"
     id="layer1"
     transform="translate(-19.999813,-22.000207)">
    <path
       style="opacity:1;fill:#bfbfbf;fill-opacity:1;fill-rule:nonzero;stroke:none;stroke-width:0.04272814;stroke-miterlimit:4;stroke-dasharray:none;stroke-opacity:1"
       d="M 15.134766 257.32031 C 13.574784 257.46981 15.122381 259.84101 12.46875 260.02148 C 9.436029 260.22774 11.45335 256.8575 8.6015625 257.91016 C 5.7497745 258.96281 9.47107 260.21357 7.03125 262.02734 C 4.59143 263.84112 4.4669111 259.9158 2.6367188 262.34375 C 0.80652637 264.7717 4.613309 263.81277 3.5410156 266.6582 C 2.4687222 269.50363 0.24314865 266.26839 0.015625 269.30078 C -0.21189864 272.33317 2.4717431 269.46577 3.1074219 272.43945 C 3.7431006 275.41314 0.12293025 273.89429 1.5703125 276.56836 C 3.0176947 279.24243 3.7253601 275.38125 5.8671875 277.53906 C 8.009015 279.69688 4.141933 280.377 6.8046875 281.84375 C 9.467442 283.3105 7.9773515 279.67713 10.945312 280.33398 C 13.913274 280.99084 11.027826 283.65548 14.060547 283.44922 C 17.093268 283.24296 13.874775 280.99406 16.726562 279.94141 C 19.57835 278.88875 18.593383 282.69073 21.033203 280.87695 C 23.473023 279.06318 19.548714 278.91037 21.378906 276.48242 C 23.209099 274.05447 24.433566 277.78684 25.505859 274.94141 C 26.578153 272.09597 23.196304 274.08903 23.423828 271.05664 C 23.651352 268.02425 26.698179 270.50298 26.0625 267.5293 C 25.426821 264.55561 23.65832 268.06079 22.210938 265.38672 C 20.763555 262.71265 24.665265 263.15 22.523438 260.99219 C 20.38161 258.83438 20.789708 262.74018 18.126953 261.27344 C 15.464199 259.80669 18.983586 258.0631 16.015625 257.40625 C 15.64463 257.32414 15.35762 257.29896 15.134766 257.32031 z M 13.078125 263.47266 A 6.912094 6.912094 0 0 1 19.990234 270.38477 A 6.912094 6.912094 0 0 1 13.078125 277.29688 A 6.912094 6.912094 0 0 1 6.1660156 270.38477 A 6.912094 6.912094 0 0 1 13.078125 263.47266 z "
       transform="matrix(0.26458333,0,0,0.26458333,19.999813,22.000207)"
       id="path4187"
       inkscape:export-xdpi="96.001778"
       inkscape:export-ydpi="96.001778" />
    <path
       style="opacity:1;fill:#bfbfbf;fill-opacity:1;fill-rule:nonzero;stroke:none;stroke-width:0.04272814;stroke-miterlimit:4;stroke-dasharray:none;stroke-opacity:1"
       d="M 36.408203 248.0332 C 36.261985 248.02527 36.095766 248.02759 35.90625 248.04102 C 32.873989 248.25589 36.099096 250.49591 33.25 251.55664 C 30.400904 252.61737 31.37652 248.81411 28.941406 250.63477 C 26.506292 252.45542 30.429323 252.59622 28.605469 255.0293 C 26.781615 257.46237 25.547258 253.73365 24.482422 256.58203 C 23.417586 259.43041 26.795723 257.428 26.576172 260.46094 C 26.356621 263.49387 23.301792 261.02432 23.945312 263.99609 C 24.588833 266.96787 26.348277 263.4571 27.802734 266.12695 C 29.257192 268.79681 25.35439 268.37179 27.501953 270.52344 C 29.649517 272.67508 29.231751 268.7694 31.898438 270.22852 C 34.565124 271.68764 31.051714 273.44146 34.021484 274.08984 C 36.991255 274.73823 34.528286 271.67972 37.560547 271.46484 C 40.592808 271.24997 38.584498 274.62519 41.433594 273.56445 C 44.28269 272.50372 40.557073 271.26401 42.992188 269.44336 C 45.427302 267.62271 45.562865 271.54831 47.386719 269.11523 C 49.210573 266.68216 45.405867 267.65307 46.470703 264.80469 C 47.535539 261.9563 49.76873 265.18332 49.988281 262.15039 C 50.207832 259.11746 47.532192 261.99326 46.888672 259.02148 C 46.245151 256.04971 49.870473 257.55658 48.416016 254.88672 C 46.961558 252.21686 46.262798 256.08133 44.115234 253.92969 C 41.967671 251.77804 45.832702 251.08607 43.166016 249.62695 C 40.499329 248.16783 42.00102 251.79682 39.03125 251.14844 C 36.24709 250.54058 38.60147 248.15214 36.408203 248.0332 z M 36.800781 254.91992 A 6.3516539 6.3516539 0 0 1 38.496094 255.17188 A 6.3516539 6.3516539 0 0 1 42.822266 263.04297 A 6.3516539 6.3516539 0 0 1 34.951172 267.36914 A 6.3516539 6.3516539 0 0 1 30.623047 259.49805 A 6.3516539 6.3516539 0 0 1 36.800781 254.91992 z "
       transform="matrix(0.26458333,0,0,0.26458333,19.999813,22.000207)"
       id="path4210"
       inkscape:export-xdpi="96.001778"
       inkscape:export-ydpi="96.001778" />
    <path
       style="opacity:1;fill:#bfbfbf;fill-opacity:1;fill-rule:nonzero;stroke:none;stroke-width:0.02999707;stroke-miterlimit:4;stroke-dasharray:none;stroke-opacity:1"
       d="M 12.578125 239.38477 C 12.397597 239.37225 12.166998 239.38984 11.871094 239.44727 C 9.5038582 239.90665 11.985407 241.10406 9.9179688 242.3457 C 7.8505302 243.58734 7.9596842 240.83485 6.4414062 242.70898 C 4.9231283 244.58312 7.5926312 243.90497 6.8066406 246.18555 C 6.02065 248.46612 4.3358543 246.28727 4.3769531 248.69922 C 4.4180519 251.11117 6.0273939 248.87455 6.890625 251.12695 C 7.7538561 253.37936 5.0632863 252.79209 6.6445312 254.61328 C 8.2257762 256.43447 8.0223221 253.68711 10.130859 254.85742 C 12.239397 256.02773 9.8001316 257.30923 12.181641 257.6875 C 14.56315 258.06577 12.64253 256.0922 15.009766 255.63281 C 17.377001 255.17343 16.332952 257.72211 18.400391 256.48047 C 20.467829 255.23883 17.725863 254.96397 19.244141 253.08984 C 20.762419 251.21571 21.600728 253.83917 22.386719 251.55859 C 23.172709 249.27802 20.896568 250.82796 20.855469 248.41602 C 20.81437 246.00407 23.142528 247.47702 22.279297 245.22461 C 21.416066 242.9722 20.667182 245.62392 19.085938 243.80273 C 17.504693 241.98155 20.23549 241.61172 18.126953 240.44141 C 16.018416 239.2711 17.149087 241.78452 14.767578 241.40625 C 12.683758 241.07526 13.841821 239.47239 12.578125 239.38477 z M 13.421875 244.45508 A 4.1539584 4.1539584 0 0 1 13.714844 244.45508 A 4.1539584 4.1539584 0 0 1 17.720703 248.75195 A 4.1539584 4.1539584 0 0 1 13.425781 252.75781 A 4.1539584 4.1539584 0 0 1 9.4179688 248.46094 A 4.1539584 4.1539584 0 0 1 13.421875 244.45508 z "
       transform="matrix(0.26458333,0,0,0.26458333,19.999813,22.000207)"
       id="path4218"
       inkscape:export-xdpi="96.001778"
       inkscape:export-ydpi="96.001778" />
  </g>
</svg>
