<?xml version="1.0" encoding="UTF-8" standalone="no"?>
<!-- Created with Inkscape (http://www.inkscape.org/) -->

<svg
   xmlns:dc="http://purl.org/dc/elements/1.1/"
   xmlns:cc="http://creativecommons.org/ns#"
   xmlns:rdf="http://www.w3.org/1999/02/22-rdf-syntax-ns#"
   xmlns:svg="http://www.w3.org/2000/svg"
   xmlns="http://www.w3.org/2000/svg"
   xmlns:sodipodi="http://sodipodi.sourceforge.net/DTD/sodipodi-0.dtd"
   xmlns:inkscape="http://www.inkscape.org/namespaces/inkscape"
   width="65.000168mm"
   height="74.999557mm"
   viewBox="0 0 65.000168 74.999557"
   id="svg2"
   version="1.1"
   inkscape:version="0.91+devel+osxmenu r12922"
   sodipodi:docname="user.svg">
  <defs
     id="defs4" />
  <sodipodi:namedview
     id="base"
     pagecolor="#ffffff"
     bordercolor="#666666"
     borderopacity="1.0"
     inkscape:pageopacity="0.0"
     inkscape:pageshadow="2"
     inkscape:zoom="2.8"
     inkscape:cx="53.92049"
     inkscape:cy="51.921208"
     inkscape:document-units="mm"
     inkscape:current-layer="layer1"
     showgrid="false"
     inkscape:window-width="1779"
     inkscape:window-height="914"
     inkscape:window-x="1440"
     inkscape:window-y="23"
     inkscape:window-maximized="0"
     fit-margin-top="0"
     fit-margin-left="0"
     fit-margin-right="0"
     fit-margin-bottom="0"
     inkscape:snap-bbox="true"
     inkscape:snap-bbox-edge-midpoints="true"
     inkscape:snap-bbox-midpoints="true"
     inkscape:snap-object-midpoints="true" />
  <metadata
     id="metadata7">
    <rdf:RDF>
      <cc:Work
         rdf:about="">
        <dc:format>image/svg+xml</dc:format>
        <dc:type
           rdf:resource="http://purl.org/dc/dcmitype/StillImage" />
        <dc:title></dc:title>
      </cc:Work>
    </rdf:RDF>
  </metadata>
  <g
     inkscape:label="Layer 1"
     inkscape:groupmode="layer"
     id="layer1"
     transform="translate(-19.999813,-22.000207)">
    <path
       style="opacity:1;fill:#ee4d2e;fill-opacity:1;fill-rule:nonzero;stroke:none;stroke-width:2.51501012;stroke-linejoin:round;stroke-miterlimit:4;stroke-dasharray:none;stroke-opacity:1"
       d="M 38.105469 207.73438 A 20.324352 20.324352 0 0 0 17.78125 228.05859 A 20.324352 20.324352 0 0 0 24.546875 243.16602 C 25.255006 237.71008 27.064271 234.63482 30.482422 236.08203 C 35.067431 238.0233 40.69509 239.19765 46.289062 235.86914 C 46.973894 235.46164 47.585486 235.28737 48.128906 235.31836 C 50.188758 235.43521 51.277535 238.5107 51.744141 243.0957 A 20.324352 20.324352 0 0 0 58.429688 228.05859 A 20.324352 20.324352 0 0 0 38.105469 207.73438 z M 38.152344 216.28906 C 42.689697 216.23514 46.93268 219.59488 47.777344 224.11328 C 48.972859 229.32565 45.089215 234.98573 39.771484 235.67383 C 34.517164 236.68583 29.022402 232.55664 28.539062 227.22266 C 27.762328 221.99715 31.968577 216.74149 37.240234 216.34766 C 37.544414 216.31306 37.849854 216.29266 38.152344 216.28906 z M 51.712891 243.125 A 20.324352 20.324352 0 0 1 38.158203 248.38086 A 20.324352 20.324352 0 0 0 51.712891 243.125 z M 24.572266 243.1875 A 20.324352 20.324352 0 0 0 26.066406 244.40234 A 20.324352 20.324352 0 0 1 24.572266 243.1875 z M 26.222656 244.51562 A 20.324352 20.324352 0 0 0 27.722656 245.50391 A 20.324352 20.324352 0 0 1 26.222656 244.51562 z M 27.978516 245.65039 A 20.324352 20.324352 0 0 0 29.488281 246.44141 A 20.324352 20.324352 0 0 1 27.978516 245.65039 z M 29.835938 246.5957 A 20.324352 20.324352 0 0 0 31.332031 247.19727 A 20.324352 20.324352 0 0 1 29.835938 246.5957 z M 31.794922 247.35156 A 20.324352 20.324352 0 0 0 33.228516 247.76758 A 20.324352 20.324352 0 0 1 31.794922 247.35156 z M 33.826172 247.90234 A 20.324352 20.324352 0 0 0 35.169922 248.15039 A 20.324352 20.324352 0 0 1 33.826172 247.90234 z M 35.929688 248.24219 A 20.324352 20.324352 0 0 0 37.255859 248.35352 A 20.324352 20.324352 0 0 1 35.929688 248.24219 z "
       transform="matrix(0.26458333,0,0,0.26458333,19.999813,22.000207)"
       id="circle8435"
       inkscape:export-xdpi="111.20452"
       inkscape:export-ydpi="111.20452" />
    <path
       sodipodi:type="inkscape:offset"
       inkscape:radius="-0.42792779"
       inkscape:original="M 36.902344 88.849609 A 2.1851747 2.1851747 0 0 0 34.716797 91.035156 A 2.1851747 2.1851747 0 0 0 36.902344 93.220703 A 2.1851747 2.1851747 0 0 0 39.087891 91.035156 A 2.1851747 2.1851747 0 0 0 36.902344 88.849609 z "
       style="opacity:1;fill:#888888;fill-opacity:1;fill-rule:nonzero;stroke:none;stroke-width:0.26458332;stroke-linecap:butt;stroke-linejoin:round;stroke-miterlimit:4;stroke-dasharray:none;stroke-opacity:1"
       id="path7786"
       d="m 36.726562,89.287109 c -0.949323,0.07092 -1.706851,1.017573 -1.566976,1.958585 0.08704,0.960547 1.076606,1.703884 2.022807,1.521642 0.95762,-0.123913 1.656842,-1.143096 1.441553,-2.081742 -0.162248,-0.867921 -1.020956,-1.49816 -1.897384,-1.398485 z"
       transform="matrix(1.4692498,0,0,1.4692498,-9.3406514,-51.876256)"
       inkscape:export-xdpi="111.20452"
       inkscape:export-ydpi="111.20452" />
    <path
       style="opacity:1;fill:#888888;fill-opacity:1;fill-rule:nonzero;stroke:none;stroke-width:1.81715095;stroke-linecap:butt;stroke-linejoin:round;stroke-miterlimit:4;stroke-dasharray:none;stroke-opacity:1"
       d="M 103.93945 235.57031 C 103.39603 235.53949 102.78444 235.71361 102.09961 236.12109 C 96.505636 239.4496 90.877978 238.27526 86.292969 236.33398 C 82.874399 234.88659 81.065371 237.96273 80.357422 243.41992 A 20.324352 20.324352 0 0 0 93.917969 248.63477 A 20.324352 20.324352 0 0 0 107.55469 243.34961 C 107.0882 238.7635 105.9996 235.68718 103.93945 235.57031 z "
       transform="matrix(0.26458333,0,0,0.26458333,19.999813,22.000207)"
       id="path7788"
       inkscape:export-xdpi="111.20452"
       inkscape:export-ydpi="111.20452" />
    <circle
       style="opacity:1;fill:none;fill-opacity:1;fill-rule:nonzero;stroke:#888888;stroke-width:0.66542977;stroke-linejoin:round;stroke-miterlimit:4;stroke-dasharray:none;stroke-opacity:1"
       id="path5442"
       cx="44.848732"
       cy="82.407578"
       r="5.3774848"
       inkscape:export-xdpi="111.20452"
       inkscape:export-ydpi="111.20452" />
    <circle
       inkscape:export-ydpi="111.20452"
       inkscape:export-xdpi="111.20452"
       r="5.3774848"
       cy="82.340759"
       cx="30.08209"
       id="circle8433"
       style="opacity:1;fill:none;fill-opacity:1;fill-rule:nonzero;stroke:#ee4d2e;stroke-width:0.66542977;stroke-linejoin:round;stroke-miterlimit:4;stroke-dasharray:none;stroke-opacity:1" />
  </g>
</svg>
